<svg xmlns="http://www.w3.org/2000/svg" width="34.615" height="29.649" viewBox="0 0 34.615 29.649"><defs><style>.a{fill:#333;stroke:rgba(0,0,0,0);stroke-miterlimit:10;}</style></defs><path class="a" d="M-6180.84,568.093a2.487,2.487,0,0,1-2.322-2.619v-17.6a2.487,2.487,0,0,1,2.322-2.619h5.965l1.656-4.236a2.469,2.469,0,0,1,2.313-1.578h9.1a2.466,2.466,0,0,1,2.312,1.578l1.657,4.236h5.965a2.487,2.487,0,0,1,2.322,2.619v17.6a2.487,2.487,0,0,1-2.322,2.619Zm-1.076-20.215v17.6a1.254,1.254,0,0,0,1.076,1.373h28.971a1.254,1.254,0,0,0,1.076-1.373v-17.6a1.254,1.254,0,0,0-1.076-1.375h-6.215a.608.608,0,0,1-.167.023.619.619,0,0,1-.167-.023h-15.873a.623.623,0,0,1-.168.023.612.612,0,0,1-.167-.023h-6.214A1.254,1.254,0,0,0-6181.916,547.878Zm22.744-2.619-1.479-3.782a1.23,1.23,0,0,0-1.153-.788h-9.1a1.233,1.233,0,0,0-1.154.788l-1.479,3.782Zm-14.819,11.416a7.644,7.644,0,0,1,7.636-7.635,7.643,7.643,0,0,1,7.634,7.635,7.643,7.643,0,0,1-7.634,7.636A7.645,7.645,0,0,1-6173.99,556.675Zm1.246,0a6.4,6.4,0,0,0,6.391,6.39,6.4,6.4,0,0,0,6.39-6.39,6.4,6.4,0,0,0-6.39-6.389A6.4,6.4,0,0,0-6172.745,556.675Zm15.785-6.389a.623.623,0,0,1-.622-.624.622.622,0,0,1,.622-.622h3.143a.623.623,0,0,1,.624.622.624.624,0,0,1-.624.624Z" transform="translate(6183.662 -538.945)"/></svg>