<svg xmlns="http://www.w3.org/2000/svg" width="106.805" height="64.439" viewBox="0 0 106.805 64.439"><defs><style>.a{fill:#333;}</style></defs><path class="a" d="M330.427,251.24a19.717,19.717,0,1,1,19.72-19.714A19.735,19.735,0,0,1,330.427,251.24Zm0-30.861a11.143,11.143,0,1,0,11.144,11.147A11.155,11.155,0,0,0,330.427,220.379Z" transform="translate(-303.078 -211.806)"/><path class="a" d="M358.356,256.61a4.285,4.285,0,0,1-4.287-4.289c0-11.422-8.424-20.716-18.782-20.716s-18.774,9.294-18.774,20.716a4.288,4.288,0,1,1-8.576,0c0-16.151,12.269-29.291,27.35-29.291s27.355,13.14,27.355,29.291A4.285,4.285,0,0,1,358.356,256.61Z" transform="translate(-307.937 -192.17)"/><path class="a" d="M395.117,250.281H355.5a4.007,4.007,0,1,1,0-8.014h39.616a4.007,4.007,0,0,1,0,8.014Z" transform="translate(-293.472 -208.798)"/><path class="a" d="M24.849,8.014,4.009,10.935a4.007,4.007,0,1,1,0-8.014L24.848,0a4.007,4.007,0,0,1,0,8.014Z" transform="translate(92.378 12.961) rotate(60)"/></svg>