<svg xmlns="http://www.w3.org/2000/svg" width="103.224" height="64.439" viewBox="0 0 103.224 64.439"><g transform="translate(-16.569 -12.5)"><path d="M25.5,23.611,35.611,33.722,55.833,13.5" transform="translate(56.889 21.333)" fill="none" stroke="#849c23" stroke-linecap="round" stroke-linejoin="round" stroke-width="10"/><path d="M330.435,251.24a19.717,19.717,0,1,0-19.72-19.714A19.735,19.735,0,0,0,330.435,251.24Zm0-30.861a11.143,11.143,0,1,1-11.144,11.147A11.155,11.155,0,0,1,330.435,220.379Z" transform="translate(-286.509 -199.306)" fill="#849c23"/><path d="M312.223,256.61a4.285,4.285,0,0,0,4.287-4.289c0-11.422,8.424-20.716,18.782-20.716s18.774,9.294,18.774,20.716a4.288,4.288,0,1,0,8.576,0c0-16.151-12.269-29.291-27.35-29.291s-27.355,13.14-27.355,29.291A4.285,4.285,0,0,0,312.223,256.61Z" transform="translate(-291.368 -179.67)" fill="#849c23"/></g></svg>