<svg xmlns="http://www.w3.org/2000/svg" width="40" height="26.888" viewBox="0 0 40 26.888"><defs><style>.a{fill:#333;stroke:rgba(0,0,0,0);stroke-miterlimit:10;}</style></defs><path class="a" d="M-2000.763,361.668a2.233,2.233,0,0,1-2.23-2.23v-.032a2.233,2.233,0,0,1,2.23-2.231h.873V340.1a4.328,4.328,0,0,1,4.323-4.323h24.8a4.328,4.328,0,0,1,4.323,4.323v17.071h.22a2.233,2.233,0,0,1,2.23,2.231v.032a2.233,2.233,0,0,1-2.23,2.23Zm-.963-2.263v.032a.964.964,0,0,0,.963.963h34.539a.964.964,0,0,0,.964-.963v-.032a.964.964,0,0,0-.964-.964h-34.539A.964.964,0,0,0-2001.726,359.405Zm3.1-19.3v17.071h30.912V340.1a3.059,3.059,0,0,0-3.055-3.056h-24.8A3.059,3.059,0,0,0-1998.623,340.1Zm1.922.076a.633.633,0,0,1-.633-.634.633.633,0,0,1,.633-.634h26.414a.634.634,0,0,1,.634.634.634.634,0,0,1-.634.634Z" transform="translate(2003.493 -335.28)"/></svg>