<svg id="logout-ico" xmlns="http://www.w3.org/2000/svg" xmlns:xlink="http://www.w3.org/1999/xlink" width="26.759" height="26.253" viewBox="0 0 26.759 26.253">
  <defs>
    <clipPath id="clip-path">
      <rect id="사각형_47" data-name="사각형 47" width="26.759" height="26.253" fill="#849c23"/>
    </clipPath>
  </defs>
  <g id="그룹_32" data-name="그룹 32" clip-path="url(#clip-path)">
    <path id="패스_175" data-name="패스 175" d="M14.519,18.629V23.9H2.358V2.359H14.519V7.626a1.179,1.179,0,0,0,2.358,0V.939A.938.938,0,0,0,15.939,0h-15A.937.937,0,0,0,0,.939V25.316a.937.937,0,0,0,.938.938h15a.938.938,0,0,0,.938-.938V18.629a1.179,1.179,0,0,0-2.358,0" transform="translate(0 -0.001)" fill="#849c23"/>
    <path id="패스_176" data-name="패스 176" d="M63.71,45.725,58.986,41a1.179,1.179,0,0,0-1.667,1.667l3.545,3.545H46.42a1.179,1.179,0,1,0,0,2.358H60.864l-3.545,3.545a1.179,1.179,0,1,0,1.667,1.667l4.724-4.724.834-.834h0a1.177,1.177,0,0,0-.049-1.711l-.785-.785" transform="translate(-38.13 -34.266)" fill="#849c23"/>
  </g>
</svg>
