<svg xmlns="http://www.w3.org/2000/svg" width="82.366" height="42.914" viewBox="0 0 82.366 42.914"><defs><style>.a,.b{fill:#849c23;}.a{fill-rule:evenodd;}</style></defs><path class="a" d="M882.908,350.617h-8.239a.583.583,0,0,0-.589.589v11.77a.583.583,0,0,0,.589.588h8.239a.583.583,0,0,0,.589-.588V351.2A.633.633,0,0,0,882.908,350.617Zm-.708,11.77h-6.824a.111.111,0,0,1-.118-.118V351.713a.111.111,0,0,1,.118-.118H882.2a.111.111,0,0,1,.118.118l.009,10.556a.126.126,0,0,1-.129.118" transform="translate(-837.633 -350.617)"/><rect class="b" width="1.883" height="1.883" rx="0.942" transform="translate(41.509 2.707)"/><rect class="b" width="1.883" height="1.883" rx="0.942" transform="translate(38.92 2.707)"/><rect class="b" width="1.883" height="1.883" rx="0.942" transform="translate(41.509 5.296)"/><rect class="b" width="1.883" height="1.883" rx="0.942" transform="translate(38.92 5.296)"/><rect class="b" width="1.883" height="1.883" rx="0.942" transform="translate(41.509 7.886)"/><rect class="b" width="1.883" height="1.883" rx="0.942" transform="translate(38.92 7.886)"/><path class="a" d="M398.989,594.635c-.017-1.791-.09-3.59.908-5.167a6.03,6.03,0,0,1,1.69-1.777,5.389,5.389,0,0,1,1.5-.707,9.558,9.558,0,0,1,2.882-.357,5.81,5.81,0,0,1,3.015.821,4.65,4.65,0,0,1,1.977,2.207A11.8,11.8,0,0,1,411.55,594V601.4h-1.839v-4.9c0-.736.044-1.979-.017-3.222a6.951,6.951,0,0,0-.79-3.44,3.785,3.785,0,0,0-3.046-1.262c-1.635-.081-3.642.391-4.355,2.054a6.92,6.92,0,0,0-.423,2.661c-.011.959-.009,1.932-.009,2.883v5.22l-2.078,0C398.993,599.584,399.006,596.457,398.989,594.635Zm14.956-13.21h1.865V601.4h-1.865Zm11.235,4.86a7.152,7.152,0,0,1,5.517,2.4,7.544,7.544,0,0,1,1.983,5.215,7.468,7.468,0,0,1-2.1,5.261,7.6,7.6,0,0,1-10.8,0,7.731,7.731,0,0,1-.111-10.463A7.134,7.134,0,0,1,425.18,586.286Zm0,1.813a5.316,5.316,0,0,0-3.954,1.708,5.712,5.712,0,0,0-1.655,4.125,5.92,5.92,0,0,0,.756,2.923,5.3,5.3,0,0,0,2.043,2.089,5.822,5.822,0,0,0,5.642,0,5.271,5.271,0,0,0,2.03-2.089,5.964,5.964,0,0,0,.749-2.923,5.711,5.711,0,0,0-1.655-4.125A5.314,5.314,0,0,0,425.18,588.1Zm10.8,10.509a9.918,9.918,0,0,1-1.419-3.875V581.084H436.4v8.039a7.784,7.784,0,0,1,2.614-2.135,7.14,7.14,0,0,1,3.165-.7,7.026,7.026,0,0,1,5.215,2.22,7.425,7.425,0,0,1,2.167,5.386,7.3,7.3,0,0,1-2.18,5.32,7.12,7.12,0,0,1-5.254,2.207,8.14,8.14,0,0,1-3.3-.676A8.285,8.285,0,0,1,435.982,598.607Zm5.99,1.038a5.558,5.558,0,0,0,2.87-.768,5.668,5.668,0,0,0,2.082-2.135,5.816,5.816,0,0,0,.775-2.916,5.907,5.907,0,0,0-.782-2.923,5.623,5.623,0,0,0-2.1-2.167,5.512,5.512,0,0,0-2.818-.768,5.808,5.808,0,0,0-2.89.768,5.353,5.353,0,0,0-2.1,2.089,5.95,5.95,0,0,0-.736,2.949,5.734,5.734,0,0,0,1.655,4.19A5.46,5.46,0,0,0,441.971,599.645Zm11.2-1.038a9.919,9.919,0,0,1-1.419-3.875V581.084h1.839v8.039a7.784,7.784,0,0,1,2.614-2.135,7.14,7.14,0,0,1,3.165-.7,7.026,7.026,0,0,1,5.215,2.22,7.425,7.425,0,0,1,2.167,5.386,7.3,7.3,0,0,1-2.18,5.32,7.119,7.119,0,0,1-5.254,2.207,8.14,8.14,0,0,1-3.3-.676A8.285,8.285,0,0,1,453.167,598.607Zm5.99,1.038a5.562,5.562,0,0,0,2.871-.768,5.666,5.666,0,0,0,2.081-2.135,5.816,5.816,0,0,0,.775-2.916,5.907,5.907,0,0,0-.782-2.923,5.623,5.623,0,0,0-2.1-2.167,5.512,5.512,0,0,0-2.818-.768,5.808,5.808,0,0,0-2.89.768,5.357,5.357,0,0,0-2.1,2.089,5.95,5.95,0,0,0-.736,2.949,5.734,5.734,0,0,0,1.655,4.19A5.46,5.46,0,0,0,459.156,599.645Zm8.49-12.991H469.6l4.952,11.1,4.807-11.1h1.984l-8.6,19.664h-1.957l2.772-6.345Z" transform="translate(-398.981 -563.404)"/></svg>