<svg xmlns="http://www.w3.org/2000/svg" width="23.921" height="38.316" viewBox="0 0 23.921 38.316"><defs><style>.a{fill:#333;stroke:rgba(0,0,0,0);stroke-miterlimit:10;}</style></defs><path class="a" d="M-2903.874,270.334a5.42,5.42,0,0,1-5.341-5.17.713.713,0,0,1-.016-.152c0-.02,0-.038.005-.058,0-.039-.005-.077-.005-.116V238.514a5.434,5.434,0,0,1,5.357-5.5h12.207a5.434,5.434,0,0,1,5.358,5.5v26.325c0,.039-.005.077-.006.116,0,.02.006.038.006.058a.764.764,0,0,1-.016.152,5.421,5.421,0,0,1-5.342,5.17Zm0-1.476h12.207a3.918,3.918,0,0,0,3.776-3.108h-19.76A3.918,3.918,0,0,0-2903.874,268.858Zm-3.881-4.585h19.968V239.8h-19.968Zm.009-25.951h19.95a3.947,3.947,0,0,0-3.872-3.829h-12.207A3.947,3.947,0,0,0-2907.746,238.323Zm9.2-1.228a.738.738,0,0,1-.738-.738.738.738,0,0,1,.738-.738h2.014a.738.738,0,0,1,.738.738.738.738,0,0,1-.738.738Z" transform="translate(2909.731 -232.518)"/></svg>