<svg xmlns="http://www.w3.org/2000/svg" width="24.633" height="25.324" viewBox="0 0 24.633 25.324"><defs><style>.a{fill:#333;}</style></defs><path class="a" d="M25.133,16.9a9.867,9.867,0,0,0,.089-1.241,9.867,9.867,0,0,0-.089-1.241L27.8,12.332a.639.639,0,0,0,.152-.81L25.424,7.14a.636.636,0,0,0-.772-.279L21.5,8.128a9.251,9.251,0,0,0-2.14-1.241l-.481-3.355A.617.617,0,0,0,18.257,3H13.193a.617.617,0,0,0-.62.532l-.481,3.355a9.728,9.728,0,0,0-2.14,1.241L6.8,6.862a.618.618,0,0,0-.772.279L3.494,11.521a.624.624,0,0,0,.152.81l2.672,2.089a10.041,10.041,0,0,0-.089,1.241A10.041,10.041,0,0,0,6.317,16.9L3.646,18.992a.639.639,0,0,0-.152.81l2.532,4.381a.636.636,0,0,0,.772.279L9.951,23.2a9.251,9.251,0,0,0,2.14,1.241l.481,3.355a.617.617,0,0,0,.62.532h5.065a.617.617,0,0,0,.62-.532l.481-3.355A9.728,9.728,0,0,0,21.5,23.2l3.153,1.266a.618.618,0,0,0,.772-.279L27.956,19.8a.639.639,0,0,0-.152-.81L25.133,16.9Zm-9.408,3.191a4.432,4.432,0,1,1,4.432-4.432A4.436,4.436,0,0,1,15.725,20.093Z" transform="translate(-3.406 -3)"/></svg>