<svg xmlns="http://www.w3.org/2000/svg" width="71.628" height="71.628" viewBox="0 0 71.628 71.628">
  <g id="time-adm" transform="translate(-3.375 -3.375)">
    <path id="패스_174" data-name="패스 174" d="M39.155,3.375A35.814,35.814,0,1,0,75,39.189,35.8,35.8,0,0,0,39.155,3.375Zm.034,64.465A28.651,28.651,0,1,1,67.84,39.189,28.651,28.651,0,0,1,39.189,67.84Z" fill="rgba(17,17,17,0.9)"/>
    <path id="합치기_5" data-name="합치기 5" d="M-2534.311,408.5a3.5,3.5,0,0,1-3.5-3.5,3.5,3.5,0,0,1,3.5-3.5h8.5V388a3.5,3.5,0,0,1,3.5-3.5,3.5,3.5,0,0,1,3.5,3.5v17a3.5,3.5,0,0,1-3.5,3.5Z" transform="translate(2565 -361)" fill="#111"/>
  </g>
</svg>
