<svg xmlns="http://www.w3.org/2000/svg" width="15.307" height="29.904" viewBox="0 0 15.307 29.904"><defs><style>.a{fill:#333;stroke:rgba(0,0,0,0);stroke-miterlimit:10;}</style></defs><path class="a" d="M-3222.142,148.568a6.95,6.95,0,0,1-6.92-6.935V127.35a.755.755,0,0,1,.735-.748h1.216V120.33a.686.686,0,0,1,.706-.665h9.024a.685.685,0,0,1,.675.7V126.6h1.216a.756.756,0,0,1,.735.748v14.283a6.951,6.951,0,0,1-6.921,6.935Zm-5.475-6.935a5.5,5.5,0,0,0,5.475,5.49h.466a5.5,5.5,0,0,0,5.476-5.49V128.048h-11.417Zm1.95-15.031h7.515V121.11h-7.515Zm4.625-1.837V122.9a.722.722,0,0,1,.722-.723.723.723,0,0,1,.723.723v1.866a.722.722,0,0,1-.723.723A.722.722,0,0,1-3221.042,124.765Zm-3.18,0V122.9a.723.723,0,0,1,.723-.723.723.723,0,0,1,.723.723v1.866a.723.723,0,0,1-.723.723A.723.723,0,0,1-3224.221,124.765Z" transform="translate(3229.563 -119.165)"/></svg>