<svg xmlns="http://www.w3.org/2000/svg" width="108" height="66" viewBox="0 0 108 66">
  <g id="visitor_list" transform="translate(58.08 -211)">
    <g id="그룹_35" data-name="그룹 35" transform="translate(-0.745)">
      <path id="패스_180" data-name="패스 180" d="M355.446,250.267h39.092a4,4,0,0,0,0-8H355.446a4,4,0,0,0,0,8Z" transform="translate(-347.828 -21.227)" fill="#333"/>
      <path id="패스_181" data-name="패스 181" d="M355.446,250.267h39.092a4,4,0,0,0,0-8H355.446a4,4,0,0,0,0,8Z" transform="translate(-347.828 -3.267)" fill="#333"/>
      <path id="패스_182" data-name="패스 182" d="M355.446,250.267h39.092a4,4,0,0,0,0-8H355.446a4,4,0,0,0,0,8Z" transform="translate(-347.828 13.773)" fill="#333"/>
    </g>
    <g id="그룹_34" data-name="그룹 34" transform="translate(0.625)">
      <path id="패스_178" data-name="패스 178" d="M330.719,251.806a20,20,0,1,0-20-20A20.018,20.018,0,0,0,330.719,251.806Zm0-31.3a11.3,11.3,0,1,1-11.3,11.307A11.315,11.315,0,0,1,330.719,220.5Z" transform="translate(-362.118 -0.806)" fill="#333"/>
      <path id="패스_179" data-name="패스 179" d="M312.168,256.029a4.221,4.221,0,0,0,4.231-4.215c0-11.224,8.316-20.357,18.54-20.357s18.532,9.133,18.532,20.357a4.233,4.233,0,0,0,8.465,0c0-15.872-12.11-28.785-27-28.785s-27,12.913-27,28.785A4.221,4.221,0,0,0,312.168,256.029Z" transform="translate(-366.642 20.971)" fill="#333"/>
    </g>
  </g>
</svg>
